# xmcd
#
# Track frame offsets: 
#        150
#        18147
#        31336
#        48154
#        61530
#        77902
#        95598
#        113184
#        131375
#        150688
#        162976
#        180478
#        196781
#        216014
#        229432
#
# Disc length: 3244 seconds
#
# Revision: 0
# Processed by: cddbd v1.5.2PL0 Copyright (c) Steve Scherf et al.
# Submitted via: ExactAudioCopy v0.99pb5
#
DISCID=b60caa0f
DTITLE=Сергей Трофимов - Все не важно
DYEAR=2010
DGENRE=Chanson
TTITLE0=Шансонь - Шансонье
TTITLE1=Формула - Счастья
TTITLE2=Густо - Не Пусто
TTITLE3=Отпускна - Отпускная
TTITLE4=Ангел - Хранитель
TTITLE5=Бан - Баня
TTITLE6=Как - Жаль
TTITLE7=Дождливый - Этюд
TTITLE8=Лет - Лети
TTITLE9=Бубль - Гум
TTITLE10=Не - Рассказывай
TTITLE11=Все не важн - Все не важно
TTITLE12=Царство - Божие
TTITLE13=О - Любви
TTITLE14=За тихой реко - За тихой рекою
EXTD=
EXTT0=
EXTT1=
EXTT2=
EXTT3=
EXTT4=
EXTT5=
EXTT6=
EXTT7=
EXTT8=
EXTT9=
EXTT10=
EXTT11=
EXTT12=
EXTT13=
EXTT14=
PLAYORDER=
